<svg viewBox="0 0 512 512" xmlns="http://www.w3.org/2000/svg" fill="currentColor">
  <path d="M480 80h-128c-17.673 0-32 14.327-32 32v64c0 17.673 14.327 32 32 32h128c17.673 0 32-14.327 32-32V112c0-17.673-14.327-32-32-32zm0 96h-128V112h128v64z"/>
  <path d="M32 80c-17.673 0-32 14.327-32 32v64c0 17.673 14.327 32 32 32h128c17.673 0 32-14.327 32-32v-32h64v32c0 35.346-28.654 64-64 64h-96v128H32V80zm0 96h128V112H32v64z"/>
  <path d="M256 240c-35.346 0-64 28.654-64 64v16h-64v-16c0-70.692 57.308-128 128-128s128 57.308 128 128v16h-64v-16c0-35.346-28.654-64-64-64z"/>
  <path d="M192 368c-17.673 0-32 14.327-32 32s14.327 32 32 32 32-14.327 32-32-14.327-32-32-32zm96 0c-17.673 0-32 14.327-32 32s14.327 32 32 32 32-14.327 32-32-14.327-32-32-32zm96 0c-17.673 0-32 14.327-32 32s14.327 32 32 32 32-14.327 32-32-14.327-32-32-32z"/>
</svg>